<svg id="OBJECTS" xmlns="http://www.w3.org/2000/svg" xmlns:xlink="http://www.w3.org/1999/xlink" viewBox="0 0 500 500"><defs><style>.cls-1{fill:#555;}.cls-2{clip-path:url(#clip-path);}.cls-3{fill:#2fa51b;}.cls-4{fill:#2fbb1c;}</style><clipPath id="clip-path"><ellipse class="cls-1" cx="247" cy="250" rx="202.49" ry="202.51" transform="translate(-104.43 247.88) rotate(-45)"/></clipPath></defs><title>Mesa de trabajo 1</title><ellipse class="cls-1" cx="247" cy="250" rx="202.49" ry="202.51" transform="translate(-104.43 247.88) rotate(-45)"/><g class="cls-2"><path class="cls-3" d="M313.87,261.31c-2.83-10.29-4.47-17.9-6.11-35.93H187.85c-1,18.08-3.16,25.66-6.23,35.93C225.37,274,269.45,273.78,313.87,261.31Z"/><path class="cls-3" d="M227.6,350.63a2.56,2.56,0,0,0-2.68,1.32,10.84,10.84,0,0,0-1.33,5.14c0,8.76,11.11,15.78,24.81,15.78s24.8-7,24.8-15.74a11,11,0,0,0-1.4-5.3,2.57,2.57,0,0,0-2.71-1.29A121.89,121.89,0,0,1,227.6,350.63Z"/><path class="cls-4" d="M351,310.28c-.12-3.86-6.47-7.52-9.5-10-6.88-5.6-19-17.26-22.72-29.7-.81-2.74-1.55-5.2-2.22-7.52a5.87,5.87,0,0,0-5.64-4.22c-42.35,9.48-84.21,9.71-125.54,0a5.88,5.88,0,0,0-5.6,4.12c-.74,2.34-1.52,4.83-2.34,7.62-3.62,12.21-14.9,23.69-21.23,29.41-2.83,2.55-7.71,6.13-7.71,9.9,0,5.18,0,12.61,0,18.19,0,4.26,3.26,6.25,7.86,7.73A429.89,429.89,0,0,0,229.28,346a318.92,318.92,0,0,0,39.23-.12,419.94,419.94,0,0,0,69.93-10C346.82,334,351,330.29,351,323.46,351,323.46,351,310.39,351,310.28Z"/><path class="cls-4" d="M304.46,227.83a5.73,5.73,0,0,0,5.72-6.22c-.1-1.17-.21-2.37-.31-3.62-5.33-65-45.62-65.16-47.47-65.48a.64.64,0,0,1-.53-.67,18.5,18.5,0,0,0-2.73-11.67,13.54,13.54,0,0,0-9.15-6.23c-.35-.06-2.61-.11-3-.11-6.54,0-10.31,5.67-10.73,6.34-2.39,3.76-3,7.4-2.71,11.68a.61.61,0,0,1-.51.65c-5.2.9-45.73,9.69-47.38,65.49,0,1.34-.08,2.63-.13,3.87a5.73,5.73,0,0,0,5.73,6A423.67,423.67,0,0,0,304.46,227.83ZM239,146.55a8.72,8.72,0,0,1,17.39,0,9.73,9.73,0,0,1-.45,3.44.79.79,0,0,1-.66.61c-.85-.35-14.36-.19-15.1,0a.56.56,0,0,1-.68-.42A9.48,9.48,0,0,1,239,146.55Z"/><path class="cls-4" d="M79.8,273.74a4.64,4.64,0,0,1-4.19-2.65,90.41,90.41,0,0,1-9-40.57,73.4,73.4,0,0,1,10.64-37.2,4.64,4.64,0,0,1,7.9,4.87A64.16,64.16,0,0,0,75.82,231,81.36,81.36,0,0,0,84,267.11a4.65,4.65,0,0,1-2.2,6.18A4.58,4.58,0,0,1,79.8,273.74Z"/><path class="cls-4" d="M105.9,278.18a75.61,75.61,0,0,1-13.7-47.09,85.77,85.77,0,0,1,6.32-28.94,71.44,71.44,0,0,1,8-14.61,10.23,10.23,0,0,1,3-2.75,4.48,4.48,0,0,1,4.28-.15,4.74,4.74,0,0,1,1.4,1.08,4.61,4.61,0,0,1,0,6,56.18,56.18,0,0,0-8.69,15.56,77.58,77.58,0,0,0-4.91,22.57c-.07,1-.11,2-.13,3a68.63,68.63,0,0,0,2.94,21.95A66.29,66.29,0,0,0,112.62,272a16.16,16.16,0,0,1,1.14,2.05,4.32,4.32,0,0,1-1.5,5.37,4.49,4.49,0,0,1-1.89.73,4.72,4.72,0,0,1-1.3,0A4.65,4.65,0,0,1,105.9,278.18Z"/><path class="cls-4" d="M139.64,286.8a4.66,4.66,0,0,1-3.45-1.53,71.05,71.05,0,0,1-14.51-24.57,76.72,76.72,0,0,1-3.84-29A95.83,95.83,0,0,1,126,198.34c4.15-9.33,9.13-16.45,13.14-20a4.64,4.64,0,1,1,6.19,6.91c-3.32,3-7.57,9.21-11.14,17.46a87.38,87.38,0,0,0-7.06,29.49,67.19,67.19,0,0,0,3.28,25.47,61.59,61.59,0,0,0,12.7,21.43,4.63,4.63,0,0,1-3.44,7.74Z"/><path class="cls-4" d="M418.62,190.84a4.65,4.65,0,0,1,4.19,2.65,90.62,90.62,0,0,1,9.05,40.57,73.46,73.46,0,0,1-10.64,37.19,4.64,4.64,0,1,1-7.9-4.86,64.25,64.25,0,0,0,9.27-32.84,81.31,81.31,0,0,0-8.16-36.08,4.64,4.64,0,0,1,2.2-6.18A4.55,4.55,0,0,1,418.62,190.84Z"/><path class="cls-4" d="M392.52,186.4a78.61,78.61,0,0,1,10.66,22,77.76,77.76,0,0,1,3,25,86,86,0,0,1-6.33,28.94,70.59,70.59,0,0,1-8,14.62,10,10,0,0,1-3,2.74,4.47,4.47,0,0,1-5.68-.93,4.58,4.58,0,0,1,0-6,56.1,56.1,0,0,0,8.68-15.57,77.12,77.12,0,0,0,4.92-22.57c.06-1,.11-2,.13-3a68.87,68.87,0,0,0-2.94-22,65.85,65.85,0,0,0-8.22-17.21,16.06,16.06,0,0,1-1.13-2.05,4.33,4.33,0,0,1,1.49-5.37,4.45,4.45,0,0,1,1.9-.73,4.6,4.6,0,0,1,4.47,2Z"/><path class="cls-4" d="M358.78,177.78a4.62,4.62,0,0,1,3.44,1.53,70.81,70.81,0,0,1,14.51,24.57,76.3,76.3,0,0,1,3.84,29,95.77,95.77,0,0,1-8.13,33.32c-4.14,9.34-9.13,16.46-13.14,20a4.64,4.64,0,1,1-6.18-6.91c3.32-3,7.57-9.21,11.14-17.46a87.14,87.14,0,0,0,7.05-29.5A67.16,67.16,0,0,0,368,207a61.29,61.29,0,0,0-12.71-21.43,4.64,4.64,0,0,1,.35-6.55A4.59,4.59,0,0,1,358.78,177.78Z"/></g></svg>